<svg width="110" height="110" viewBox="0 0 110 110" fill="none" xmlns="http://www.w3.org/2000/svg">
<path d="M110 7.33333C110 3.66666 106.333 0 102.667 0H7.33333C3.66666 0 0 3.66666 0 7.33333V77H110V7.33333Z" fill="#212528"/>
<path d="M3.05176e-05 77V84.3333C3.05176e-05 88 3.6667 91.6667 7.33336 91.6667H102.667C106.333 91.6667 110 88 110 84.3333V77H3.05176e-05Z" fill="#DDDDDD"/>
<path d="M40.3333 95.3333C40.3333 102.667 33 102.667 25.6667 102.667H84.3333C77 102.667 69.6667 102.667 69.6667 95.3333V91.6666H40.3333V95.3333Z" fill="#BFBEBE"/>
<path d="M7.33336 7.33337H102.667V69.6667H7.33336V7.33337Z" fill="#3E4347"/>
<path d="M55 85.9834C56.0125 85.9834 56.8333 85.1626 56.8333 84.15C56.8333 83.1375 56.0125 82.3167 55 82.3167C53.9875 82.3167 53.1667 83.1375 53.1667 84.15C53.1667 85.1626 53.9875 85.9834 55 85.9834Z" fill="#94989B"/>
<path d="M25.6667 102.667H84.3333V110H25.6667V102.667Z" fill="#94989B"/>
</svg>
