<svg width="203" height="203" viewBox="0 0 203 203" fill="none" xmlns="http://www.w3.org/2000/svg">
<g clip-path="url(#clip0_96_9)">
<path d="M163.656 63.4374C160.717 49.0448 152.873 36.1184 141.465 26.8644C130.056 17.6105 115.79 12.6025 101.101 12.6954C86.4113 12.7882 72.2093 17.9761 60.9188 27.3735C49.6283 36.7709 41.949 49.7955 39.1917 64.2241C27.4834 66.3081 16.981 72.7035 9.75553 82.149C2.53006 91.5946 -0.893941 103.405 0.158753 115.25C1.21145 127.096 6.66442 138.117 15.4423 146.14C24.2202 154.164 35.6858 158.607 47.5781 158.594H50.75V145.906H47.5781C38.5228 145.93 29.8135 142.429 23.2933 136.145C16.7731 129.862 12.9535 121.288 12.6427 112.237C12.332 103.187 15.5545 94.3715 21.6284 87.6553C27.7022 80.9391 36.1509 76.8494 45.1865 76.2518L50.4962 75.8902L51.0672 70.6059C52.3521 58.8055 57.7363 47.8299 66.2817 39.5913C74.8271 31.3526 85.9921 26.3731 97.8315 25.5202C109.671 24.6673 121.434 27.9951 131.072 34.9238C140.71 41.8526 147.612 51.9431 150.575 63.4374H163.656Z" fill="black"/>
<path d="M177.625 76.125H114.188C110.824 76.1284 107.598 77.4662 105.22 79.8448C102.841 82.2234 101.503 85.4486 101.5 88.8125V114.188H76.125C72.7611 114.191 69.5359 115.529 67.1573 117.907C64.7787 120.286 63.4409 123.511 63.4375 126.875V190.312H190.312V88.8125C190.309 85.4486 188.971 82.2234 186.593 79.8448C184.214 77.4662 180.989 76.1284 177.625 76.125V76.125ZM76.125 177.625V126.875H101.5V177.625H76.125ZM177.625 177.625H114.188V88.8125H177.625V177.625Z" fill="black"/>
<path d="M126.875 101.5H139.562V126.875H126.875V101.5Z" fill="black"/>
<path d="M152.25 101.5H164.938V126.875H152.25V101.5Z" fill="black"/>
<path d="M126.875 139.562H139.562V164.938H126.875V139.562Z" fill="black"/>
<path d="M152.25 139.562H164.938V164.938H152.25V139.562Z" fill="black"/>
</g>
<defs>
<clipPath id="clip0_96_9">
<rect width="203" height="203" fill="white"/>
</clipPath>
</defs>
</svg>
