<svg width="193" height="193" viewBox="0 0 193 193" fill="none" xmlns="http://www.w3.org/2000/svg">
<path d="M24.125 64.3333H168.875M112.583 184.958L160.833 136.708L112.583 184.958ZM168.875 112.583C165.694 112.583 162.584 113.527 159.94 115.294C157.295 117.061 155.233 119.573 154.016 122.512C152.799 125.451 152.48 128.685 153.101 131.804C153.721 134.924 155.253 137.79 157.502 140.039C159.752 142.289 162.617 143.82 165.737 144.441C168.857 145.062 172.091 144.743 175.03 143.526C177.969 142.308 180.481 140.247 182.248 137.602C184.015 134.957 184.958 131.848 184.958 128.667L168.875 112.583ZM136.708 32.1667H144.75V40.2083H136.708V32.1667ZM80.4167 184.958H24.125V8.04169H168.875V88.4583L80.4167 184.958ZM24.125 104.542H136.708H24.125ZM24.125 144.75H104.542H24.125Z" stroke="black" stroke-width="2"/>
</svg>
