<svg width="384" height="354" viewBox="0 0 384 354" fill="none" xmlns="http://www.w3.org/2000/svg">
<path d="M287.83 249.828C287.83 234.155 270.859 224.306 257.356 232.143C243.853 239.979 243.853 259.676 257.356 267.513C270.859 275.349 287.83 265.501 287.83 249.828V249.828ZM336.01 211.218C349.454 146.955 318.221 125.799 267.94 172.317C220.615 127.95 185.239 142.897 199.579 210.925C133.45 230.86 137.813 270.355 200.099 289.523C185.848 352.174 214.147 375.966 267.924 328.642C320.088 375.428 349.458 352.551 335.218 289.22C403.156 266.185 397.047 230.937 336.01 211.219V211.218ZM324.134 208.055C313.477 205.65 305.037 204.244 294.548 203.289C289.021 195.208 283.824 188.54 276.427 181.03C315.854 142.57 334.979 158.382 324.134 208.055V208.055ZM221.285 265.744C225.274 274.259 227.634 276.767 231.577 283.309C225.155 282.653 222.908 282.277 215.544 280.974C217.903 274.368 218.628 272.403 221.285 265.744V265.744ZM220.774 235.717C217.84 228.674 216.893 226.307 214.706 219.979C222.309 218.404 225.097 217.601 231.556 217.112C226.748 224.663 225.115 227.501 220.774 235.717V235.717ZM227.863 250.894C234.439 237.726 240.569 226.627 248.281 215.457C261.964 214.671 273.942 214.73 287.323 215.716C294.829 226.173 301.011 237.297 307.743 250.909C302.705 261.319 296.329 271.933 288.085 284.749C274.321 285.792 261.835 285.638 247.499 284.739C240.233 273.608 234.209 263.262 227.864 250.894H227.863ZM314.268 265.559C316.879 271.895 317.588 273.914 319.825 280.48C312.923 281.934 310.825 282.303 304.099 283.018C308.703 275.884 310.064 273.438 314.268 265.559V265.559ZM304.135 217.267C311.467 218.269 313.812 218.727 320.64 220.234C318.356 227.023 317.54 229.267 314.622 235.743C310.459 227.534 308.949 224.819 304.135 217.266L304.135 217.267ZM277.6 202.041C269.226 201.714 266.665 201.729 258.014 202.047C261.802 197.067 263.074 195.561 267.703 190.149C272.215 195.019 273.48 196.558 277.6 202.042L277.6 202.041ZM259.17 181.029C251.773 188.539 246.576 194.939 241.05 203.02C230.56 203.974 221.871 205.378 211.213 207.782C200.514 157.229 218.178 143.423 259.17 181.029V181.029ZM203.27 277.888C153.036 262.519 149.956 238.333 202.747 222.828C205.976 232.627 209.237 240.827 213.66 250.384C209.362 260.267 206.191 268.615 203.27 277.888ZM212.242 292.69C221.742 295.021 229.972 295.774 240.519 296.896C246.864 305.851 252.197 312.774 259.177 319.961C223.372 355.084 198.32 346.781 212.242 292.69ZM267.664 311.205C262.8 306.168 261.067 304.028 256.759 297.833C266.361 298.036 269.978 298.068 278.8 297.843C274.527 303.904 272.708 305.967 267.664 311.205ZM276.397 319.934C283.887 311.796 289.265 304.999 295.07 296.648C304.978 295.919 313.165 294.728 323.335 292.407C335.808 343.013 314.951 356.702 276.397 319.934ZM332.061 277.342C329.181 268.068 326.17 260.266 321.932 250.383C326.293 240.826 329.399 232.909 332.583 223.109C377.669 236.524 388.258 260.043 332.061 277.342ZM140.293 264.43H63.5182L127.136 158.318H182.942C179.87 170.325 179.81 178.377 183.064 196.924C150.583 208.526 130.555 227.577 140.293 264.43ZM226.324 21.4813H206.767V115.815L217.267 132.277C210.062 132.955 203.491 135.554 198.052 139.852L185.795 121.102V21.4813H124.405V121.102L25.4355 285.208H137.598V305.904H20.6205C0.859492 305.904 -4.98151 296.009 4.32374 280.173L103.432 115.814V21.4813H83.8762C69.2482 21.4813 69.2482 0.785004 83.8762 0.785004H226.324C240.952 0.785004 240.952 21.4813 226.324 21.4813Z" fill="black"/>
</svg>
