<svg width="95" height="100" viewBox="0 0 95 100" fill="none" xmlns="http://www.w3.org/2000/svg">
<path d="M47.3679 36.6631C44.0568 36.6631 40.956 37.9477 38.6083 40.2954C36.2717 42.6431 34.976 45.7439 34.976 49.055C34.976 52.3662 36.2717 55.4669 38.6083 57.8146C40.956 60.1513 44.0568 61.4469 47.3679 61.4469C50.6791 61.4469 53.7798 60.1513 56.1275 57.8146C58.4642 55.4669 59.7598 52.3662 59.7598 49.055C59.7598 45.7439 58.4642 42.6431 56.1275 40.2954C54.9809 39.1399 53.616 38.2238 52.1123 37.6003C50.6085 36.9767 48.9958 36.6582 47.3679 36.6631V36.6631ZM93.0264 62.7426L85.7839 56.5522C86.1272 54.4481 86.3044 52.2997 86.3044 50.1624C86.3044 48.0252 86.1272 45.8657 85.7839 43.7727L93.0264 37.5823C93.5735 37.1139 93.9651 36.4901 94.149 35.7938C94.333 35.0975 94.3006 34.3617 94.0563 33.6842L93.9566 33.3963C91.9634 27.8226 88.9768 22.6562 85.1416 18.1473L84.9423 17.9147C84.4766 17.3671 83.8559 16.9735 83.162 16.7857C82.4681 16.5979 81.7336 16.6247 81.0553 16.8627L72.0631 20.0631C68.7409 17.3389 65.0422 15.1905 61.0334 13.6955L59.2947 4.29361C59.1636 3.58534 58.82 2.93374 58.3096 2.42539C57.7993 1.91704 57.1464 1.576 56.4376 1.44757L56.1386 1.3922C50.3801 0.35124 44.3115 0.35124 38.553 1.3922L38.254 1.44757C37.5452 1.576 36.8923 1.91704 36.3819 2.42539C35.8716 2.93374 35.528 3.58534 35.3969 4.29361L33.6472 13.7398C29.6763 15.2467 25.9772 17.3899 22.6949 20.0852L13.6363 16.8627C12.9582 16.6229 12.2231 16.595 11.5288 16.783C10.8345 16.9709 10.2139 17.3656 9.74929 17.9147L9.54996 18.1473C5.72157 22.661 2.73576 27.8261 0.734993 33.3963L0.635326 33.6842C0.136993 35.0685 0.546734 36.6188 1.66522 37.5823L8.99626 43.8391C8.65296 45.9211 8.48685 48.0473 8.48685 50.1514C8.48685 52.2776 8.65296 54.4038 8.99626 56.4636L1.68736 62.7205C1.14026 63.1888 0.748685 63.8126 0.564717 64.5089C0.38075 65.2052 0.413102 65.9411 0.657474 66.6185L0.757141 66.9065C2.76155 72.4767 5.71833 77.6262 9.57211 82.1555L9.77144 82.388C10.2372 82.9356 10.8579 83.3292 11.5517 83.517C12.2456 83.7049 12.9801 83.678 13.6584 83.4401L22.717 80.2175C26.0171 82.9306 29.6937 85.079 33.6693 86.5629L35.419 96.0091C35.5502 96.7174 35.8938 97.369 36.4041 97.8774C36.9144 98.3857 37.5673 98.7268 38.2761 98.8552L38.5751 98.9105C44.3903 99.9571 50.3456 99.9571 56.1608 98.9105L56.4598 98.8552C57.1685 98.7268 57.8215 98.3857 58.3318 97.8774C58.8421 97.369 59.1857 96.7174 59.3169 96.0091L61.0555 86.6072C65.0643 85.1012 68.7631 82.9639 72.0853 80.2396L81.0774 83.4401C81.7556 83.6799 82.4906 83.7077 83.1849 83.5198C83.8792 83.3319 84.4999 82.9371 84.9644 82.388L85.1638 82.1555C89.0176 77.604 91.9743 72.4767 93.9787 66.9065L94.0784 66.6185C94.5546 65.2453 94.1449 63.706 93.0264 62.7426ZM47.3679 68.5233C36.615 68.5233 27.8997 59.808 27.8997 49.055C27.8997 38.3021 36.615 29.5868 47.3679 29.5868C58.1209 29.5868 66.8362 38.3021 66.8362 49.055C66.8362 59.808 58.1209 68.5233 47.3679 68.5233Z" fill="black"/>
</svg>
