<svg width="108" height="108" viewBox="0 0 108 108" fill="none" xmlns="http://www.w3.org/2000/svg">
<path d="M105.881 92.1519C101.187 88.5356 88.6905 78.5476 77.0512 66.5451C69.3153 58.5629 66.025 50.5719 60.1602 44.5227C54.8482 39.0442 50.0163 35.8513 50.0163 35.8513L48.6555 37.2546L39.4632 27.7752L43.0139 24.1128C43.3022 23.812 43.4632 23.4114 43.4632 22.9947C43.4632 22.5781 43.3022 22.1775 43.0139 21.8767L42.2804 21.1201C42.2839 21.1166 52.7308 7.0587 65.94 10.9461C67.4744 11.4015 68.8422 12.1758 69.2303 11.7807C69.7583 11.2385 67.7472 9.1548 66.569 7.94994C49.8586 -9.14843 31.426 9.90607 31.4172 9.91493L30.7669 9.2434C30.627 9.09729 30.4589 8.98102 30.2729 8.90158C30.0868 8.82215 29.8866 8.7812 29.6843 8.7812C29.482 8.7812 29.2818 8.82215 29.0957 8.90158C28.9097 8.98102 28.7416 9.09729 28.6017 9.2434L12.2315 26.1256C11.9433 26.4264 11.7823 26.827 11.7823 27.2436C11.7823 27.6603 11.9433 28.0609 12.2315 28.3617C12.2315 28.3617 14.2355 31.8682 8.98019 32.499C6.8646 32.7559 5.53926 33.2325 4.78799 33.8615C3.61528 35.0442 2.44644 36.2308 1.28149 37.4212C0.993214 37.722 0.832275 38.1225 0.832275 38.5392C0.832275 38.9559 0.993214 39.3564 1.28149 39.6572L13.5321 52.2941C13.6722 52.4403 13.8404 52.5566 14.0266 52.636C14.2128 52.7155 14.4131 52.7564 14.6156 52.7564C14.818 52.7564 15.0184 52.7155 15.2046 52.636C15.3908 52.5566 15.559 52.4403 15.6991 52.2941C15.6991 52.2941 19.0762 48.7681 19.1489 48.676C19.7566 47.8999 20.2208 46.5356 20.4653 44.3527C21.082 38.9308 24.4768 41.0003 24.4768 41.0003C24.6168 41.147 24.7851 41.2637 24.9714 41.3435C25.1578 41.4232 25.3585 41.4644 25.5612 41.4644C25.7639 41.4644 25.9646 41.4232 26.1509 41.3435C26.3373 41.2637 26.5056 41.147 26.6456 41.0003L30.1964 37.3379L39.3852 46.8155L38.0244 48.2206C38.0244 48.2206 41.1216 53.2048 46.4336 58.6834C52.2967 64.7307 60.0468 68.1238 67.7844 76.106C79.4202 88.1085 89.1034 100.995 92.6152 105.838C93.9405 107.661 94.1514 107.493 95.7691 105.822L100.817 100.616L105.862 95.4121C107.483 93.736 107.649 93.5198 105.881 92.1519" fill="black"/>
</svg>
