<svg width="106" height="106" viewBox="0 0 106 106" fill="none" xmlns="http://www.w3.org/2000/svg">
<path d="M87.5842 64.6644V83.2497C87.5842 92.8961 79.8719 100.717 70.3554 100.717C60.8388 100.717 53.1265 92.8961 53.1265 83.2497L53.1583 24.2642C53.1583 13.8124 45.446 5.33971 35.9295 5.33971C26.4156 5.33971 18.7006 13.8124 18.7006 24.2642V64.667" stroke="black" stroke-width="4" stroke-linecap="round" stroke-linejoin="round"/>
<path d="M103.48 71.574L87.5842 55.6777L71.688 71.574" stroke="black" stroke-width="4" stroke-linecap="round" stroke-linejoin="round"/>
<path d="M103.48 17.8632C103.48 29.6662 87.5841 39.7815 87.5841 39.7815C87.5841 39.7815 71.6879 29.6662 71.6879 17.8632C71.6879 13.8388 73.3623 9.98136 76.3429 7.13328C79.3814 4.2653 83.4059 2.67466 87.5841 2.69029C91.7623 2.67521 95.7866 4.26576 98.8254 7.13328C100.288 8.51286 101.455 10.1754 102.255 12.02C103.055 13.8646 103.472 15.8526 103.48 17.8632V17.8632ZM34.5967 81.4481C34.5967 93.251 18.7005 103.366 18.7005 103.366C18.7005 103.366 2.80429 93.251 2.80429 81.4481C2.80429 77.4237 4.47869 73.5662 7.45923 70.7182C10.4978 67.8502 14.5223 66.2595 18.7005 66.2752C22.8787 66.2601 26.903 67.8506 29.9418 70.7182C31.4045 72.0977 32.5714 73.7603 33.3717 75.6049C34.1719 77.4494 34.5887 79.4375 34.5967 81.4481V81.4481Z" fill="#2F88FF" stroke="black" stroke-width="4" stroke-linecap="round" stroke-linejoin="round"/>
<path d="M87.5842 23.8853C90.5106 23.8853 92.8829 21.513 92.8829 18.5866C92.8829 15.6602 90.5106 13.2878 87.5842 13.2878C84.6578 13.2878 82.2855 15.6602 82.2855 18.5866C82.2855 21.513 84.6578 23.8853 87.5842 23.8853Z" fill="white"/>
<path d="M18.7006 87.4702C21.627 87.4702 23.9994 85.0978 23.9994 82.1714C23.9994 79.245 21.627 76.8727 18.7006 76.8727C15.7742 76.8727 13.4019 79.245 13.4019 82.1714C13.4019 85.0978 15.7742 87.4702 18.7006 87.4702Z" fill="white"/>
</svg>
